<?xml version='1.0' encoding='utf-8'?>
<svg xmlns="http://www.w3.org/2000/svg" xmlns:inkscape="http://www.inkscape.org/namespaces/inkscape" xmlns:ns1="http://sodipodi.sourceforge.net/DTD/sodipodi-0.dtd" version="1.1" id="svg1" width="968" height="821.33331" viewBox="0 0 968 821.33331" ns1:docname="sandra_mit_hund.png">
  <defs id="defs1" />
  <ns1:namedview id="namedview1" pagecolor="#ffffff" bordercolor="#000000" borderopacity="0.25" inkscape:showpageshadow="2" inkscape:pageopacity="0.0" inkscape:pagecheckerboard="0" inkscape:deskcolor="#d1d1d1" />
  <g inkscape:groupmode="layer" inkscape:label="Image" id="g1">
    <g id="g2">
      <path id="hund" style="fill: #000acc" d="M 657.8031,642.74816 c-5.04221,-2.16223 -4.96508,-4.12802 0.37716,-9.61226 l5.15307,-5.29003 -0.31522,-20.92294 c-0.44882,-29.79116 -4.04492,-60.25628 -7.11264,-60.25628 -1.66301,0 -1.5265,27.13602 0.17361,34.51032 1.12466,4.8783 0.97717,6.25254 -0.89281,8.31885 -1.83688,2.02973 -2.10556,4.25323 -1.49287,12.35441 0.89063,11.77609 -0.58119,14.72179 -8.40888,16.82957 -6.19822,1.669 -15.62806,-0.28633 -16.85971,-3.49596 -0.44449,-1.15831 0.71432,-3.56027 2.73533,-5.66974 4.42847,-4.62233 4.43594,-6.15405 0.23516,-48.18078 -1.79586,-17.96667 -3.682,-38.06667 -4.19142,-44.66667 -1.17147,-15.17726 -2.83325,-19.83323 -11.88361,-33.29557 -10.97533,-16.32573 -11.53253,-20.9733 -6.68757,-55.78079 2.74265,-19.7039 1.60324,-26.70041 -6.10021,-37.45815 -7.42668,-10.37124 -9.06601,-11.0078 -15.38766,-5.97518 -4.53206,3.60796 -5.78005,3.98205 -10.47816,3.14088 -2.93334,-0.52519 -9.23334,-1.05466 -14,-1.1766 -9.93896,-0.25425 -12.00713,-1.18702 -19.28626,-8.69841 -5.1565,-5.32102 -5.24118,-5.5609 -3.44979,-9.77221 1.01007,-2.37451 1.88888,-7.00304 1.95293,-10.28561 0.10922,-5.59772 0.46832,-6.16277 5.78312,-9.0999 4.84795,-2.67913 5.66666,-3.75286 5.66666,-7.43168 0,-2.36506 0.75,-5.03891 1.66667,-5.94188 0.91667,-0.90298 3.17351,-5.37261 5.01521,-9.9325 2.94925,-7.30212 3.94291,-8.48545 8.33314,-9.92375 3.56807,-1.16894 6.90199,-1.2694 11.73158,-0.35348 6.00964,1.1397 7.17942,0.95981 10.70408,-1.64608 3.59991,-2.66153 4.3449,-2.76329 8.25321,-1.12741 2.36286,0.98901 7.89982,1.91483 12.30435,2.05737 4.40454,0.14254 9.38326,0.99505 11.06383,1.89447 3.49833,1.87225 5.90479,7.11338 4.70349,10.24393 -0.56023,1.45993 2.305,5.33259 9.13352,12.34491 12.04526,12.36948 27.94988,30.28017 35.64208,40.13766 l5.66008,7.25335 20.89438,6.40307 c41.10186,12.59562 40.21125,12.42036 61.56105,12.11472 10.63333,-0.15222 27.66709,0.37228 37.8528,1.16555 l18.51946,1.44231 8.39306,-8.81617 c9.36546,-9.8376 14.10454,-11.42204 16.75624,-5.60219 1.22491,2.68839 0.75421,4.75473 -2.87837,12.63571 l-4.34276,9.42173 5.00002,5.53441 c2.75,3.04393 6.09495,8.00972 7.43322,11.0351 1.33827,3.02538 4.32662,7.29882 6.64077,9.49654 7.83439,7.44022 11.75848,17.92643 14.60681,39.0333 0.94442,6.99847 3.84937,17.27521 7.93844,28.08361 11.20944,29.62924 17.85418,40.6351 28.73589,47.59605 l7.05273,4.51158 -0.24158,28.86603 c-0.22056,26.35415 -0.45559,29.0225 -2.70086,30.66428 -3.31146,2.42141 -12.51279,3.57841 -17.43254,2.19203 -5.39902,-1.52144 -6.21393,-6.96386 -1.50474,-10.04944 4.88308,-3.19952 6.93976,-14.39694 5.23046,-28.47682 -1.20521,-9.92757 -1.8112,-11.48635 -6.73851,-17.33334 -6.59285,-7.82339 -31.54376,-32.09906 -41.81851,-40.68679 -4.1207,-3.44412 -10.89603,-11.32523 -15.05629,-17.51357 -8.29006,-12.33141 -11.9204,-16.2458 -13.92048,-15.00969 -2.07238,1.28081 -4.19273,13.37035 -4.18314,23.85092 0.0101,11.04927 1.35642,13.77197 11.01307,22.27209 3.88514,3.41983 6.30854,6.66531 6.30383,8.44226 -0.0129,4.87835 -8.75924,31.01916 -12.53316,37.45888 -4.83139,8.24414 -11.55553,11.43446 -24.04297,11.40739 -11.48727,-0.0249 -13.85356,-1.16267 -11.79853,-5.67296 1.73117,-3.79952 9.15261,-7.63996 14.7638,-7.63996 4.82374,0 7.20775,-3.21669 10.321,-13.92592 3.31326,-11.39719 2.04255,-15.37707 -8.48453,-26.57379 -17.89264,-19.03081 -22.13909,-27.08846 -26.32039,-49.94308 -1.64025,-8.96544 -2.76808,-12.22387 -4.23099,-12.22387 -1.09704,0 -5.94674,2.82018 -10.77712,6.26707 -4.83038,3.44689 -12.59226,7.64993 -17.24863,9.3401 -4.65637,1.69017 -10.08043,3.88029 -12.05348,4.86692 -1.97304,0.98663 -10.48735,2.85375 -18.92069,4.14915 -19.61439,3.01287 -18.4668,2.57275 -20.71058,7.94288 -3.19566,7.64828 -7.58607,47.64304 -6.96343,63.43388 0.3336,8.46035 -0.17597,18.22068 -1.2878,24.66666 -1.2458,7.22262 -1.55864,14.97267 -0.96893,24.00293 0.81488,12.47827 0.68922,13.50069 -1.95317,15.89202 -3.18582,2.88312 -14.96488,4.19409 -19.64632,2.18656 Z" />
      <path id="sandra_stiefel" style="fill: #9900cc" d="M 325.33333,758.67111 c-7.7,-1.38984 -18.03616,-2.55942 -22.96926,-2.59906 -10.88988,-0.0875 -11.8212,-1.13373 -14.90045,-16.73873 -5.73549,-29.06634 -10.86611,-91.13085 -7.78788,-94.20908 1.00367,-1.00367 9.13836,-1.57855 23.92254,-1.69062 18.01441,-0.13654 23.67613,-0.64188 28.90888,-2.58027 5.74482,-2.12808 6.73832,-2.17931 8.48033,-0.4373 1.74201,1.742 1.57297,2.97351 -1.44286,10.5119 -4.18232,10.45416 -8.87796,35.72267 -8.87796,47.77471 0,7.06523 0.62934,9.83815 3.04886,13.43348 l3.04886,4.53051 12.49828,0.3862 c6.87405,0.2124 13.01959,-0.13512 13.65675,-0.77229 0.65576,-0.65575 0.32627,-6.6094 -0.75926,-13.71953 -4.41763,-28.93507 -6.3119,-46.40758 -5.91518,-54.56105 l0.42169,-8.66666 24,-0.81989 c13.2,-0.45094 26.83893,-1.56939 30.30873,-2.48543 11.70626,-3.0905 12.0833,-1.91683 5.88245,18.31094 -5.87437,19.16279 -8.25869,57.4602 -3.85172,61.86717 1.08593,1.08593 4.44003,1.01087 12.57083,-0.2813 16.97483,-2.69771 32.60465,-2.26703 39.13306,1.07833 15.75132,8.07143 8.70165,22.88124 -14.78134,31.05237 -12.42281,4.32264 -18.38108,5.25617 -41.92868,6.56931 -13.07933,0.72938 -24.70323,2.08754 -28.66667,3.34949 -10.65476,3.39245 -37.17002,3.7346 -54,0.6968 Z"  />
      <path id="sandra_bein_links" style="fill: #9900cc" d="M 290.79355999999996,638.15288 c-0.84313,-1.0159 -2.11742,-9.8659 -2.83177,-19.66666 -0.71434,-9.80076 -1.85511,-22.61957 -2.53503,-28.48623 -0.73367,-6.33039 -0.74785,-11.16668 -0.0349,-11.89662 0.7322,-0.74963 6.29236,-0.34516 14.23807,1.03574 7.17019,1.24612 16.03672,2.3996 19.70338,2.56328 l6.66667,0.2976 0.36045,27.68935 0.36046,27.68936 -3.44726,1.31064 c-5.50539,2.09315 -30.64227,1.67797 -32.48009,-0.53646 Z" />
      <path id="sandra_bein_rechts" style="fill: #9900cc" d="M 368.32496999999995,632.5201999999999 c-0.71622,-1.38612 -1.70978,-16.97398 -2.2079,-34.63968 -0.72065,-25.55725 -0.55272,-32.40048 0.82196,-33.49491 2.2827,-1.81734 32.71062,-7.47204 35.15652,-6.53346 1.5841,0.60788 1.90445,6.67608 1.90445,36.07525 0,42.08241 1.65684,38.78363 -20.18883,40.19599 -13.07933,0.8456 -14.2854,0.72074 -15.4862,-1.60319 Z" />
      <path id="sandra_koerper" style="fill: #9900cc" d="M 308.0,577.81232 C288.11938,573.95577 270.44277,568.00969 247.71024,557.53196 232.36058,550.45709 223.60118,547.06665 216,545.2581 c-4.03333,-0.95965 -7.78191,-2.11388 -8.33017,-2.56497 -0.54826,-0.45108 1.31938,-6.49157 4.15031,-13.42331 2.83094,-6.93174 9.22594,-24.60317 14.21113,-39.26983 11.81289,-34.75408 23.81654,-62.19516 34.85577,-79.68243 1.818,-2.8799 2.99346,-5.54818 2.61213,-5.92951 -0.38132,-0.38133 -3.37554,0.60512 -6.6538,2.1921 C244.60786,412.50422 236,411.44006 236,404.0031 c0,-5.79546 5.0997,-18.35492 8.38816,-20.65825 1.66939,-1.16929 5.7852,-2.01153 9.82983,-2.01153 3.82688,0 7.28753,-0.53324 7.69033,-1.18499 0.4028,-0.65174 -1.42545,-2.83083 -4.06279,-4.84243 -9.45305,-7.21019 -9.99641,-14.79234 -1.90305,-26.55564 7.55851,-10.98591 12.1717,-9.61352 22.86743,6.80293 3.02682,4.64574 5.93669,8.4468 6.46638,8.4468 0.52968,0 1.59003,-12.45 2.35632,-27.66666 1.06958,-21.23909 1.97106,-29.17397 3.88033,-34.15464 2.90345,-7.5742 8.6511,-14.41361 14.94858,-17.78804 4.77553,-2.55892 5.25062,-5.19665 0.87181,-4.84032 -1.46666,0.11934 -6.26666,1.58109 -10.66666,3.24831 -6.79124,2.57329 -11.24056,3.11454 -29.44701,3.58216 -21.41029,0.5499 -21.46451,0.54383 -31.66931,-3.54237 -13.34417,-5.34326 -22.44435,-11.33634 -31.92639,-21.02565 -8.98222,-9.17857 -11.49692,-12.68993 -17.57233,-24.53688 -5.73415,-11.18149 -9.51806,-24.19164 -11.38972,-39.16103 C173.0445,185.17899 171.352,180.90288 164.50063,172.44227 162.02528,169.38552 160,166.28718 160,165.55707 c0,-0.73011 4.04381,-4.52913 8.98624,-8.44227 14.5321,-11.5057 26.77073,-23.19394 33.09393,-31.60565 31.45672,-41.846689 92.03784,-63.371059 129.77874,-46.110167 4.11093,1.880145 9.20536,5.034523 11.32095,7.00973 5.12978,4.789383 13.95411,18.571067 19.94789,31.154247 5.13716,10.78483 11.61237,17.63669 21.4637,22.71222 4.3123,2.22175 6.99921,2.5973 14.93758,2.08785 5.81448,-0.37315 10.2368,-0.0639 11.07522,0.77455 2.33825,2.33825 1.57476,7.50598 -2.10887,14.27402 -3.9602,7.27619 -3.62738,9.58403 1.75247,12.15187 3.23812,1.54559 3.80847,2.67293 4.16325,8.22908 0.27407,4.29219 -0.3134,7.54387 -1.76248,9.75545 -1.74307,2.66025 -1.89051,4.12929 -0.74443,7.41694 4.82343,13.83652 -0.93227,28.83915 -16.72079,43.58389 -9.10726,8.50518 -25.83991,18.7845 -30.57735,18.7845 -0.93628,0 -3.25567,1.84603 -5.15419,4.1023 -7.09758,8.43499 -3.5021,23.29669 7.03399,29.07458 8.79306,4.82203 23.71211,9.48978 30.33118,9.48978 7.50939,0 32.98136,-5.49082 50.00059,-10.77828 15.47611,-4.80806 18.70001,-7.84248 25.35407,-23.86386 7.15846,-17.23585 21.75954,-41.12573 41.33124,-67.62506 l9.06024,-12.26721 -0.77671,-13.06612 c-0.48478,-8.15517 -0.20158,-15.17319 0.75348,-18.67217 3.19987,-11.72309 12.94452,-17.91061 16.36933,-10.39396 0.83532,1.83333 1.87246,3.37924 2.30475,3.43535 6.94738,0.90172 8.57045,2.45731 8.54207,8.18687 -0.0119,2.40778 1.08807,5.80869 2.44444,7.55759 1.35638,1.7489 2.46614,4.86349 2.46614,6.92131 0,2.05783 0.66856,4.1547 1.4857,4.65972 2.99222,1.84929 0.28406,10.90822 -5.23325,17.50549 -4.57236,5.46737 -13.58579,21.07083 -13.58579,23.51885 0,0.43375 -5.02298,11.75953 -11.16219,25.16839 -6.13921,13.40887 -15.51968,34.27976 -20.8455,46.37976 -10.84348,24.63586 -13.34748,28.85622 -20.48719,34.53015 -10.16638,8.07922 -58.43716,23.68115 -81.22146,26.25214 -4.24399,0.4789 -8.8506,1.84879 -10.23691,3.04421 -3.83722,3.30887 -10.91486,21.31389 -11.1625,28.39662 -0.32058,9.169 -1.60844,8.03743 49.78242,43.74088 25.1644,17.48281 39.67844,29.2045 50.24941,40.58197 16.53097,17.79218 23.57944,34.27256 20.37352,47.63634 -3.52002,14.67309 -16.85977,25.11338 -43.24567,33.84605 -14.14283,4.6807 -21.23582,5.93009 -53.37726,9.40212 -33.62568,3.63236 -44.40043,6.42094 -65.33333,16.90874 -13.43712,6.73226 -22.89275,8.70244 -32.66667,6.80644 Z" />
      <path id="sandra_tail" style="fill: #9900cc" d="M 156.43657,384.80695000000003 152.72444,381.61391000000003 155.89121999999998,369.80695000000003 c7.99864,-29.82201 4.82607,-55.38508 -9.44866,-76.13268 -2.24824,-3.26771 -15.16211,-17.38787 -28.69749,-31.37814 -25.926231,-26.79754 -30.408096,-32.33705 -36.142613,-44.67165 -4.686507,-10.0804 -5.027747,-26.94797 -0.736074,-36.38431 7.740998,-17.02055 28.552637,-27.25648 48.738147,-23.9712 15.64474,2.54624 31.80075,13.80431 38.41467,26.76867 2.87823,5.64179 2.90299,6.03 0.80832,12.67506 -3.02936,9.61022 -2.77996,25.00197 0.58146,35.88498 1.50827,4.88322 6.82137,18.33407 11.80688,29.89079 18.76004,43.48693 22.95276,63.24906 18.18821,85.72896 -3.71346,17.52066 -13.31432,32.39617 -24.07074,37.29501 -7.56751,3.44651 -14.36479,3.19274 -18.89676,-0.70549 Z" />
      <path id="sandra_masche_rechts" style="fill: #cc0000" d="M 155.55555999999999,160.44444000000004 c-0.48889,-0.48889 -0.88889,-5.81561 -0.88889,-11.83717 0,-11.45838 1.4875,-16.68022 7.43572,-26.1028 2.95694,-4.68409 3.79654,-5.16991 8.91434,-5.15811 6.77021,0.0156 18.8447,5.32434 20.91701,9.19649 1.27647,2.38511 0.69729,3.61739 -4.22731,8.99408 -6.19233,6.76081 -28.47851,25.7964 -30.20149,25.7964 -0.58327,0 -1.4605,-0.4 -1.94938,-0.88889 Z" />
      <path id="sandra_masche_links" style="fill: #cc0000" d="M 140,155.8722 c -2.56667,-1.53148 -8.41667,-6.4619 -13,-10.9565 -9.79058,-9.60104 -10.42296,-12.63939 -3.90421,-18.75827 5.30636,-4.98086 19.88875,-12.16574 22.58871,-11.12967 2.4601,0.94403 4.70904,12.495 5.8355,29.97224 l 0.88085,13.66666 -3.86709,-0.005 c -2.1269,-0.003 -5.96709,-1.25801 -8.53376,-2.78948 z" />
    </g>
  </g>
</svg>
